<svg  width="29" height="28" viewBox="0 0 29 28" fill="none" xmlns="http://www.w3.org/2000/svg">
<g clip-path="url(#clip0_2008_4678)">
<path fill-rule="evenodd" clip-rule="evenodd" d="M7.00171 5.91479H21.7737V20.468H17.5337V22.085H15.7556V20.468H10.1459V22.085H8.36778V20.468H7.00171V5.91479Z" fill="#052E16"/>
<path fill-rule="evenodd" clip-rule="evenodd" d="M7.0067 4.5H21.7787V5.98223H23.2819V20.5354H23.2795L18.8371 20.5355V23.4999H18.8348L14.3895 23.5V22.0177V20.5355H11.4515V19.0532H14.3895H15.8941H15.8967V20.5355H15.8941V22.0177H17.3326V20.468H18.8343V19.0532H21.7774L21.7787 5.98223L7.0067 5.98227V4.5ZM7.0067 22.0177V19.0532H8.51126V22.0177H9.94475V20.468H11.4493V22.0177H11.452V23.5H7.0067V22.0177ZM5.5 20.5354V5.98223H7.00456V20.5354H5.5Z" fill="#052E16"/>
<path d="M11.3469 11.7429V16.1898H12.9199V11.7429H11.3469Z" fill="white" stroke="white" stroke-width="0.0531915"/>
<path d="M18.7347 11.7429V16.1898H20.3077V11.7429H18.7347Z" fill="white" stroke="white" stroke-width="0.0531915"/>
</g>
<defs>
<clipPath id="clip0_2008_4678">
<rect width="18" height="19" fill="white" transform="translate(5.5 4.5)"/>
</clipPath>
</defs>
</svg>
