<svg width="38" height="38" viewBox="0 0 38 38" fill="none" xmlns="http://www.w3.org/2000/svg">
<path d="M0 4C0 1.79086 1.79086 0 4 0H34C36.2091 0 38 1.79086 38 4V34C38 36.2091 36.2091 38 34 38H4C1.79086 38 0 36.2091 0 34V4Z" fill="#F1DBDB"/>
<g clip-path="url(#clip0_111_34)">
<path d="M15.75 6H14.125V7.625H15.75V6Z" fill="black"/>
<path d="M17.375 6H15.75V7.625H17.375V6Z" fill="black"/>
<path d="M19 6H17.375V7.625H19V6Z" fill="black"/>
<path d="M20.625 6H19V7.625H20.625V6Z" fill="black"/>
<path d="M22.25 6H20.625V7.625H22.25V6Z" fill="black"/>
<path d="M23.875 6H22.25V7.625H23.875V6Z" fill="black"/>
<path d="M12.5 7.625H10.875V9.25H12.5V7.625Z" fill="black"/>
<path d="M14.125 7.625H12.5V9.25H14.125V7.625Z" fill="black"/>
<path d="M15.75 7.625H14.125V9.25H15.75V7.625Z" fill="#FFB039"/>
<path d="M17.375 7.625H15.75V9.25H17.375V7.625Z" fill="#FFB039"/>
<path d="M19 7.625H17.375V9.25H19V7.625Z" fill="#FFB039"/>
<path d="M20.625 7.625H19V9.25H20.625V7.625Z" fill="#FFB039"/>
<path d="M22.25 7.625H20.625V9.25H22.25V7.625Z" fill="#FFB039"/>
<path d="M23.875 7.625H22.25V9.25H23.875V7.625Z" fill="#FFB039"/>
<path d="M25.5 7.625H23.875V9.25H25.5V7.625Z" fill="black"/>
<path d="M27.125 7.625H25.5V9.25H27.125V7.625Z" fill="black"/>
<path d="M10.875 9.25H9.25V10.875H10.875V9.25Z" fill="black"/>
<path d="M12.5 9.25H10.875V10.875H12.5V9.25Z" fill="#FFB039"/>
<path d="M14.125 9.25H12.5V10.875H14.125V9.25Z" fill="#FFB039"/>
<path d="M15.75 9.25H14.125V10.875H15.75V9.25Z" fill="#FFFFFB"/>
<path d="M17.375 9.25H15.75V10.875H17.375V9.25Z" fill="#FFE85E"/>
<path d="M19 9.25H17.375V10.875H19V9.25Z" fill="#FFE85E"/>
<path d="M20.625 9.25H19V10.875H20.625V9.25Z" fill="#FFE85E"/>
<path d="M22.25 9.25H20.625V10.875H22.25V9.25Z" fill="#FFE85E"/>
<path d="M23.875 9.25H22.25V10.875H23.875V9.25Z" fill="#FFE85E"/>
<path d="M25.5 9.25H23.875V10.875H25.5V9.25Z" fill="#DB7103"/>
<path d="M27.125 9.25H25.5V10.875H27.125V9.25Z" fill="#DB7103"/>
<path d="M28.75 9.25H27.125V10.875H28.75V9.25Z" fill="black"/>
<path d="M9.25 10.875H7.625V12.5H9.25V10.875Z" fill="black"/>
<path d="M10.875 10.875H9.25V12.5H10.875V10.875Z" fill="#FFB039"/>
<path d="M12.5 10.875H10.875V12.5H12.5V10.875Z" fill="#FFFFFB"/>
<path d="M14.125 10.875H12.5V12.5H14.125V10.875Z" fill="#FFFFFB"/>
<path d="M15.75 10.875H14.125V12.5H15.75V10.875Z" fill="#FFE85E"/>
<path d="M17.375 10.875H15.75V12.5H17.375V10.875Z" fill="#DB7103"/>
<path d="M19 10.875H17.375V12.5H19V10.875Z" fill="#DB7103"/>
<path d="M20.625 10.875H19V12.5H20.625V10.875Z" fill="#DB7103"/>
<path d="M22.25 10.875H20.625V12.5H22.25V10.875Z" fill="#DB7103"/>
<path d="M23.875 10.875H22.25V12.5H23.875V10.875Z" fill="#FFE85E"/>
<path d="M25.5 10.875H23.875V12.5H25.5V10.875Z" fill="#FFE85E"/>
<path d="M27.125 10.875H25.5V12.5H27.125V10.875Z" fill="#FFE85E"/>
<path d="M28.75 10.875H27.125V12.5H28.75V10.875Z" fill="#DB7103"/>
<path d="M30.375 10.875H28.75V12.5H30.375V10.875Z" fill="black"/>
<path d="M9.25 12.5H7.625V14.125H9.25V12.5Z" fill="black"/>
<path d="M10.875 12.5H9.25V14.125H10.875V12.5Z" fill="#FFB039"/>
<path d="M12.5 12.5H10.875V14.125H12.5V12.5Z" fill="#FFFFFB"/>
<path d="M14.125 12.5H12.5V14.125H14.125V12.5Z" fill="#DB7103"/>
<path d="M15.75 12.5H14.125V14.125H15.75V12.5Z" fill="#DB7103"/>
<path d="M17.375 12.5H15.75V14.125H17.375V12.5Z" fill="#FFB039"/>
<path d="M19 12.5H17.375V14.125H19V12.5Z" fill="#FFB039"/>
<path d="M20.625 12.5H19V14.125H20.625V12.5Z" fill="#FFB039"/>
<path d="M22.25 12.5H20.625V14.125H22.25V12.5Z" fill="#FFB039"/>
<path d="M23.875 12.5H22.25V14.125H23.875V12.5Z" fill="#DB7103"/>
<path d="M25.5 12.5H23.875V14.125H25.5V12.5Z" fill="#DB7103"/>
<path d="M27.125 12.5H25.5V14.125H27.125V12.5Z" fill="#FFE85E"/>
<path d="M28.75 12.5H27.125V14.125H28.75V12.5Z" fill="#DB7103"/>
<path d="M30.375 12.5H28.75V14.125H30.375V12.5Z" fill="black"/>
<path d="M7.625 14.125H6V15.75H7.625V14.125Z" fill="black"/>
<path d="M9.25 14.125H7.625V15.75H9.25V14.125Z" fill="#FFB039"/>
<path d="M10.875 14.125H9.25V15.75H10.875V14.125Z" fill="#FFFFFB"/>
<path d="M12.5 14.125H10.875V15.75H12.5V14.125Z" fill="#FFE85E"/>
<path d="M14.125 14.125H12.5V15.75H14.125V14.125Z" fill="#DB7103"/>
<path d="M15.75 14.125H14.125V15.75H15.75V14.125Z" fill="#FFB039"/>
<path d="M17.375 14.125H15.75V15.75H17.375V14.125Z" fill="#FFB039"/>
<path d="M19 14.125H17.375V15.75H19V14.125Z" fill="#FFB039"/>
<path d="M20.625 14.125H19V15.75H20.625V14.125Z" fill="#FFB039"/>
<path d="M22.25 14.125H20.625V15.75H22.25V14.125Z" fill="#FFE85E"/>
<path d="M23.875 14.125H22.25V15.75H23.875V14.125Z" fill="#FFE85E"/>
<path d="M25.5 14.125H23.875V15.75H25.5V14.125Z" fill="#DB7103"/>
<path d="M27.125 14.125H25.5V15.75H27.125V14.125Z" fill="#FFE85E"/>
<path d="M28.75 14.125H27.125V15.75H28.75V14.125Z" fill="#FFE85E"/>
<path d="M30.375 14.125H28.75V15.75H30.375V14.125Z" fill="#DB7103"/>
<path d="M32 14.125H30.375V15.75H32V14.125Z" fill="black"/>
<path d="M7.625 15.75H6V17.375H7.625V15.75Z" fill="black"/>
<path d="M9.25 15.75H7.625V17.375H9.25V15.75Z" fill="#FFB039"/>
<path d="M10.875 15.75H9.25V17.375H10.875V15.75Z" fill="#FFE85E"/>
<path d="M12.5 15.75H10.875V17.375H12.5V15.75Z" fill="#DB7103"/>
<path d="M14.125 15.75H12.5V17.375H14.125V15.75Z" fill="#FFB039"/>
<path d="M15.75 15.75H14.125V17.375H15.75V15.75Z" fill="#FFB039"/>
<path d="M17.375 15.75H15.75V17.375H17.375V15.75Z" fill="#FFB039"/>
<path d="M19 15.75H17.375V17.375H19V15.75Z" fill="#FFE85E"/>
<path d="M20.625 15.75H19V17.375H20.625V15.75Z" fill="#FFE85E"/>
<path d="M22.25 15.75H20.625V17.375H22.25V15.75Z" fill="#FFE85E"/>
<path d="M23.875 15.75H22.25V17.375H23.875V15.75Z" fill="#FFE85E"/>
<path d="M25.5 15.75H23.875V17.375H25.5V15.75Z" fill="#FFE85E"/>
<path d="M27.125 15.75H25.5V17.375H27.125V15.75Z" fill="#FFB039"/>
<path d="M28.75 15.75H27.125V17.375H28.75V15.75Z" fill="#FFE85E"/>
<path d="M30.375 15.75H28.75V17.375H30.375V15.75Z" fill="#DB7103"/>
<path d="M32 15.75H30.375V17.375H32V15.75Z" fill="black"/>
<path d="M7.625 17.375H6V19H7.625V17.375Z" fill="black"/>
<path d="M9.25 17.375H7.625V19H9.25V17.375Z" fill="#FFB039"/>
<path d="M10.875 17.375H9.25V19H10.875V17.375Z" fill="#FFE85E"/>
<path d="M12.5 17.375H10.875V19H12.5V17.375Z" fill="#DB7103"/>
<path d="M14.125 17.375H12.5V19H14.125V17.375Z" fill="#FFB039"/>
<path d="M15.75 17.375H14.125V19H15.75V17.375Z" fill="#FFB039"/>
<path d="M17.375 17.375H15.75V19H17.375V17.375Z" fill="#FFE85E"/>
<path d="M19 17.375H17.375V19H19V17.375Z" fill="#FFE85E"/>
<path d="M20.625 17.375H19V19H20.625V17.375Z" fill="#FFE85E"/>
<path d="M22.25 17.375H20.625V19H22.25V17.375Z" fill="#FFE85E"/>
<path d="M23.875 17.375H22.25V19H23.875V17.375Z" fill="#FFE85E"/>
<path d="M25.5 17.375H23.875V19H25.5V17.375Z" fill="#FFFFFB"/>
<path d="M27.125 17.375H25.5V19H27.125V17.375Z" fill="#FFB039"/>
<path d="M28.75 17.375H27.125V19H28.75V17.375Z" fill="#FFE85E"/>
<path d="M30.375 17.375H28.75V19H30.375V17.375Z" fill="#DB7103"/>
<path d="M32 17.375H30.375V19H32V17.375Z" fill="black"/>
<path d="M7.625 19H6V20.625H7.625V19Z" fill="black"/>
<path d="M9.25 19H7.625V20.625H9.25V19Z" fill="#FFB039"/>
<path d="M10.875 19H9.25V20.625H10.875V19Z" fill="#FFE85E"/>
<path d="M12.5 19H10.875V20.625H12.5V19Z" fill="#DB7103"/>
<path d="M14.125 19H12.5V20.625H14.125V19Z" fill="#FFB039"/>
<path d="M15.75 19H14.125V20.625H15.75V19Z" fill="#FFB039"/>
<path d="M17.375 19H15.75V20.625H17.375V19Z" fill="#FFE85E"/>
<path d="M19 19H17.375V20.625H19V19Z" fill="#FFE85E"/>
<path d="M20.625 19H19V20.625H20.625V19Z" fill="#FFE85E"/>
<path d="M22.25 19H20.625V20.625H22.25V19Z" fill="#FFE85E"/>
<path d="M23.875 19H22.25V20.625H23.875V19Z" fill="#FFE85E"/>
<path d="M25.5 19H23.875V20.625H25.5V19Z" fill="#FFFFFB"/>
<path d="M27.125 19H25.5V20.625H27.125V19Z" fill="#FFB039"/>
<path d="M28.75 19H27.125V20.625H28.75V19Z" fill="#FFE85E"/>
<path d="M30.375 19H28.75V20.625H30.375V19Z" fill="#DB7103"/>
<path d="M32 19H30.375V20.625H32V19Z" fill="black"/>
<path d="M7.625 20.625H6V22.25H7.625V20.625Z" fill="black"/>
<path d="M9.25 20.625H7.625V22.25H9.25V20.625Z" fill="#FFB039"/>
<path d="M10.875 20.625H9.25V22.25H10.875V20.625Z" fill="#FFE85E"/>
<path d="M12.5 20.625H10.875V22.25H12.5V20.625Z" fill="#DB7103"/>
<path d="M14.125 20.625H12.5V22.25H14.125V20.625Z" fill="#FFB039"/>
<path d="M15.75 20.625H14.125V22.25H15.75V20.625Z" fill="#FFE85E"/>
<path d="M17.375 20.625H15.75V22.25H17.375V20.625Z" fill="#FFE85E"/>
<path d="M19 20.625H17.375V22.25H19V20.625Z" fill="#FFE85E"/>
<path d="M20.625 20.625H19V22.25H20.625V20.625Z" fill="#FFE85E"/>
<path d="M22.25 20.625H20.625V22.25H22.25V20.625Z" fill="#FFE85E"/>
<path d="M23.875 20.625H22.25V22.25H23.875V20.625Z" fill="#FFE85E"/>
<path d="M25.5 20.625H23.875V22.25H25.5V20.625Z" fill="#FFFFFB"/>
<path d="M27.125 20.625H25.5V22.25H27.125V20.625Z" fill="#FFB039"/>
<path d="M28.75 20.625H27.125V22.25H28.75V20.625Z" fill="#FFE85E"/>
<path d="M30.375 20.625H28.75V22.25H30.375V20.625Z" fill="#DB7103"/>
<path d="M32 20.625H30.375V22.25H32V20.625Z" fill="black"/>
<path d="M7.625 22.25H6V23.875H7.625V22.25Z" fill="black"/>
<path d="M9.25 22.25H7.625V23.875H9.25V22.25Z" fill="#FFB039"/>
<path d="M10.875 22.25H9.25V23.875H10.875V22.25Z" fill="#FFE85E"/>
<path d="M12.5 22.25H10.875V23.875H12.5V22.25Z" fill="#FFE85E"/>
<path d="M14.125 22.25H12.5V23.875H14.125V22.25Z" fill="#DB7103"/>
<path d="M15.75 22.25H14.125V23.875H15.75V22.25Z" fill="#FFE85E"/>
<path d="M17.375 22.25H15.75V23.875H17.375V22.25Z" fill="#FFE85E"/>
<path d="M19 22.25H17.375V23.875H19V22.25Z" fill="#FFE85E"/>
<path d="M20.625 22.25H19V23.875H20.625V22.25Z" fill="#FFE85E"/>
<path d="M22.25 22.25H20.625V23.875H22.25V22.25Z" fill="#FFE85E"/>
<path d="M23.875 22.25H22.25V23.875H23.875V22.25Z" fill="#FFFFFB"/>
<path d="M25.5 22.25H23.875V23.875H25.5V22.25Z" fill="#FFB039"/>
<path d="M27.125 22.25H25.5V23.875H27.125V22.25Z" fill="#FFE85E"/>
<path d="M28.75 22.25H27.125V23.875H28.75V22.25Z" fill="#FFE85E"/>
<path d="M30.375 22.25H28.75V23.875H30.375V22.25Z" fill="#DB7103"/>
<path d="M32 22.25H30.375V23.875H32V22.25Z" fill="black"/>
<path d="M9.25 23.875H7.625V25.5H9.25V23.875Z" fill="black"/>
<path d="M10.875 23.875H9.25V25.5H10.875V23.875Z" fill="#FFB039"/>
<path d="M12.5 23.875H10.875V25.5H12.5V23.875Z" fill="#FFE85E"/>
<path d="M14.125 23.875H12.5V25.5H14.125V23.875Z" fill="#DB7103"/>
<path d="M15.75 23.875H14.125V25.5H15.75V23.875Z" fill="#DB7103"/>
<path d="M17.375 23.875H15.75V25.5H17.375V23.875Z" fill="#FFE85E"/>
<path d="M19 23.875H17.375V25.5H19V23.875Z" fill="#FFFFFB"/>
<path d="M20.625 23.875H19V25.5H20.625V23.875Z" fill="#FFFFFB"/>
<path d="M22.25 23.875H20.625V25.5H22.25V23.875Z" fill="#FFFFFB"/>
<path d="M23.875 23.875H22.25V25.5H23.875V23.875Z" fill="#FFB039"/>
<path d="M25.5 23.875H23.875V25.5H25.5V23.875Z" fill="#FFB039"/>
<path d="M27.125 23.875H25.5V25.5H27.125V23.875Z" fill="#FFE85E"/>
<path d="M28.75 23.875H27.125V25.5H28.75V23.875Z" fill="#DB7103"/>
<path d="M30.375 23.875H28.75V25.5H30.375V23.875Z" fill="black"/>
<path d="M9.25 25.5H7.625V27.125H9.25V25.5Z" fill="black"/>
<path d="M10.875 25.5H9.25V27.125H10.875V25.5Z" fill="#FFB039"/>
<path d="M12.5 25.5H10.875V27.125H12.5V25.5Z" fill="#FFE85E"/>
<path d="M14.125 25.5H12.5V27.125H14.125V25.5Z" fill="#FFE85E"/>
<path d="M15.75 25.5H14.125V27.125H15.75V25.5Z" fill="#FFE85E"/>
<path d="M17.375 25.5H15.75V27.125H17.375V25.5Z" fill="#FFB039"/>
<path d="M19 25.5H17.375V27.125H19V25.5Z" fill="#FFB039"/>
<path d="M20.625 25.5H19V27.125H20.625V25.5Z" fill="#FFB039"/>
<path d="M22.25 25.5H20.625V27.125H22.25V25.5Z" fill="#FFB039"/>
<path d="M23.875 25.5H22.25V27.125H23.875V25.5Z" fill="#FFE85E"/>
<path d="M25.5 25.5H23.875V27.125H25.5V25.5Z" fill="#FFE85E"/>
<path d="M27.125 25.5H25.5V27.125H27.125V25.5Z" fill="#FFE85E"/>
<path d="M28.75 25.5H27.125V27.125H28.75V25.5Z" fill="#DB7103"/>
<path d="M30.375 25.5H28.75V27.125H30.375V25.5Z" fill="black"/>
<path d="M10.875 27.125H9.25V28.75H10.875V27.125Z" fill="black"/>
<path d="M12.5 27.125H10.875V28.75H12.5V27.125Z" fill="#FFB039"/>
<path d="M14.125 27.125H12.5V28.75H14.125V27.125Z" fill="#FFB039"/>
<path d="M15.75 27.125H14.125V28.75H15.75V27.125Z" fill="#FFE85E"/>
<path d="M17.375 27.125H15.75V28.75H17.375V27.125Z" fill="#FFE85E"/>
<path d="M19 27.125H17.375V28.75H19V27.125Z" fill="#FFE85E"/>
<path d="M20.625 27.125H19V28.75H20.625V27.125Z" fill="#FFE85E"/>
<path d="M22.25 27.125H20.625V28.75H22.25V27.125Z" fill="#FFE85E"/>
<path d="M23.875 27.125H22.25V28.75H23.875V27.125Z" fill="#FFE85E"/>
<path d="M25.5 27.125H23.875V28.75H25.5V27.125Z" fill="#DB7103"/>
<path d="M27.125 27.125H25.5V28.75H27.125V27.125Z" fill="#DB7103"/>
<path d="M28.75 27.125H27.125V28.75H28.75V27.125Z" fill="black"/>
<path d="M12.5 28.75H10.875V30.375H12.5V28.75Z" fill="black"/>
<path d="M14.125 28.75H12.5V30.375H14.125V28.75Z" fill="black"/>
<path d="M15.75 28.75H14.125V30.375H15.75V28.75Z" fill="#FFB039"/>
<path d="M17.375 28.75H15.75V30.375H17.375V28.75Z" fill="#FFB039"/>
<path d="M19 28.75H17.375V30.375H19V28.75Z" fill="#FFB039"/>
<path d="M20.625 28.75H19V30.375H20.625V28.75Z" fill="#FFB039"/>
<path d="M22.25 28.75H20.625V30.375H22.25V28.75Z" fill="#FFB039"/>
<path d="M23.875 28.75H22.25V30.375H23.875V28.75Z" fill="#FFB039"/>
<path d="M25.5 28.75H23.875V30.375H25.5V28.75Z" fill="black"/>
<path d="M27.125 28.75H25.5V30.375H27.125V28.75Z" fill="black"/>
<path d="M15.75 30.375H14.125V32H15.75V30.375Z" fill="black"/>
<path d="M17.375 30.375H15.75V32H17.375V30.375Z" fill="black"/>
<path d="M19 30.375H17.375V32H19V30.375Z" fill="black"/>
<path d="M20.625 30.375H19V32H20.625V30.375Z" fill="black"/>
<path d="M22.25 30.375H20.625V32H22.25V30.375Z" fill="black"/>
<path d="M23.875 30.375H22.25V32H23.875V30.375Z" fill="black"/>
</g>
<defs>
<clipPath id="clip0_111_34">
<rect width="26" height="26" fill="white" transform="translate(6 6)"/>
</clipPath>
</defs>
</svg>
