<svg width="16" height="16" viewBox="0 0 16 16" fill="none" xmlns="http://www.w3.org/2000/svg">
<g clip-path="url(#clip0_15_4816)">
<path fill-rule="evenodd" clip-rule="evenodd" d="M5.1283 4.5H10.873V5.04608H11.4576V10.4078H11.4566L9.72901 10.4078V11.5H9.72811L7.99939 11.5V10.9539V10.4078H6.85681V9.86172H7.99939H8.5845H8.58553V10.4078H8.5845V10.9539H9.14392V10.3829H9.72791V9.86172H10.8725L10.873 5.04608L5.1283 5.0461V4.5ZM5.1283 10.9539V9.86172H5.7134V10.9539H6.27087V10.3829H6.85598V10.9539H6.85702V11.5H5.1283V10.9539ZM4.54236 10.4078V5.04608H5.12746V10.4078H4.54236Z" fill="#052E16"/>
<path fill-rule="evenodd" clip-rule="evenodd" d="M5.08398 5.02148H10.8286V10.3832H9.17977V10.9789H8.48828V10.3832H6.30672V10.9789H5.61523V10.3832H5.08398V5.02148Z" fill="#052E16"/>
<path d="M6.77344 7.16834V8.80664H7.38514V7.16834H6.77344Z" fill="#F0FDF4" stroke="#F0FDF4" stroke-width="0.0531915"/>
<path d="M9.64648 7.16834V8.80664H10.2582V7.16834H9.64648Z" fill="#F0FDF4" stroke="#F0FDF4" stroke-width="0.0531915"/>
</g>
<defs>
<clipPath id="clip0_15_4816">
<rect width="7" height="7" fill="white" transform="translate(4.5 4.5)"/>
</clipPath>
</defs>
</svg>
