<svg width="25" height="24" viewBox="0 0 25 24" fill="none" xmlns="http://www.w3.org/2000/svg">
<path d="M1 4C1 2.067 2.567 0.5 4.5 0.5H20.5C22.433 0.5 24 2.067 24 4V20C24 21.933 22.433 23.5 20.5 23.5H4.5C2.567 23.5 1 21.933 1 20V4Z" stroke="#052E16" stroke-opacity="0.2"/>
<path d="M9.3183 16.3123V14.1461H7.16946V12.0007H5V7.66806H7.14884V5.5H11.4256V7.64544H13.5536V5.5H17.8512V7.64544H20V12.0008H17.9358V14.1463H15.7871V16.3127H13.6383V18.5H11.4688V16.3123H9.3183ZM13.6175 9.83445V11.978H15.7022V9.83445H13.6175Z" fill="#052E16"/>
</svg>
