<svg width="29" height="28" viewBox="0 0 29 28" fill="none" xmlns="http://www.w3.org/2000/svg">
<path d="M7.625 7.57141H6.375V8.85713H7.625V7.57141Z" fill="#052E16"/>
<path d="M6.375 8.85712H5.125V10.1428H6.375V8.85712Z" fill="#052E16"/>
<path d="M12.625 7.57141H11.375V8.85713H12.625V7.57141Z" fill="#052E16"/>
<path d="M13.875 8.85712H12.625V10.1428H13.875V8.85712Z" fill="#052E16"/>
<path d="M11.375 6.28571H10.125V5H8.875V6.28571H7.625V7.57143H8.875V23H10.125V7.57143H11.375V6.28571Z" fill="#052E16"/>
<path d="M22.625 19.1429H21.375V20.4286H22.625V19.1429Z" fill="#052E16"/>
<path d="M23.875 17.8571H22.625V19.1428H23.875V17.8571Z" fill="#052E16"/>
<path d="M17.625 19.1429H16.375V20.4286H17.625V19.1429Z" fill="#052E16"/>
<path d="M16.375 17.8571H15.125V19.1428H16.375V17.8571Z" fill="#052E16"/>
<path d="M20.125 20.4286V5H18.875V20.4286H17.625V21.7143H18.875V23H20.125V21.7143H21.375V20.4286H20.125Z" fill="#052E16"/>
</svg>
