<svg width="23" height="28" viewBox="0 0 23 28" fill="none" xmlns="http://www.w3.org/2000/svg">
<rect x="6.65228" y="17.6355" width="9.69531" height="0.807943" fill="#342E2E"/>
<rect x="5.03662" y="10.3642" width="0.807943" height="0.807943" transform="rotate(-90 5.03662 10.3642)" fill="#342E2E"/>
<rect x="5.03662" y="17.6358" width="0.807943" height="0.807943" transform="rotate(-90 5.03662 17.6358)" fill="#342E2E"/>
<rect x="4.22852" y="16.8279" width="6.46354" height="0.807943" transform="rotate(-90 4.22852 16.8279)" fill="#342E2E"/>
<rect x="17.9637" y="16.8279" width="6.46354" height="0.807943" transform="rotate(-90 17.9637 16.8279)" fill="#342E2E"/>
<rect x="17.1555" y="10.3642" width="0.807943" height="0.807943" transform="rotate(-90 17.1555 10.3642)" fill="#342E2E"/>
<rect x="17.1555" y="17.6358" width="0.807943" height="0.807943" transform="rotate(-90 17.1555 17.6358)" fill="#342E2E"/>
<rect x="5.84418" y="18.4436" width="0.807943" height="11.3112" transform="rotate(-90 5.84418 18.4436)" fill="#342E2E"/>
<rect x="9.07599" y="14.4043" width="3.23177" height="0.807943" transform="rotate(-90 9.07599 14.4043)" fill="#342E2E"/>
<rect x="13.1154" y="14.4043" width="3.23177" height="0.807943" transform="rotate(-90 13.1154 14.4043)" fill="#342E2E"/>
<rect x="7.45944" y="4.7083" width="0.807943" height="0.807943" fill="#342E2E"/>
<rect x="14.7314" y="4.7083" width="0.807943" height="0.807943" fill="#342E2E"/>
<rect x="6.65189" y="5.51613" width="0.807943" height="0.807943" fill="#342E2E"/>
<rect x="15.5389" y="5.51613" width="0.807943" height="0.807943" fill="#342E2E"/>
<rect x="5.84378" y="6.32425" width="0.807943" height="3.23177" fill="#342E2E"/>
<rect x="8.26755" y="5.51613" width="0.807943" height="3.23177" fill="#342E2E"/>
<rect x="16.347" y="6.32425" width="0.807943" height="3.23177" fill="#342E2E"/>
<rect x="13.9232" y="5.51613" width="0.807943" height="3.23177" fill="#342E2E"/>
<rect x="9.07568" y="8.74802" width="0.807943" height="4.84766" transform="rotate(-90 9.07568 8.74802)" fill="#342E2E"/>
<rect x="9.88608" y="22.4836" width="0.807943" height="0.807943" fill="#342E2E"/>
<rect x="12.3098" y="22.4836" width="0.807943" height="0.807943" fill="#342E2E"/>
<rect x="13.118" y="21.6758" width="0.807943" height="0.807943" fill="#342E2E"/>
<rect x="9.07852" y="21.6758" width="0.807943" height="0.807943" fill="#342E2E"/>
<rect x="10.6942" y="21.6758" width="1.61589" height="0.807943" fill="#342E2E"/>
<rect x="13.9261" y="21.6758" width="3.23177" height="0.807943" transform="rotate(-90 13.9261 21.6758)" fill="#342E2E"/>
<rect x="8.27042" y="21.6758" width="3.23177" height="0.807943" transform="rotate(-90 8.27042 21.6758)" fill="#342E2E"/>
</svg>
